HIERARCHY
ROOT root
{
	OFFSET	0	13.1	24.9
	CHANNELS 6  Xposition Yposition Zposition Xrotation Yrotation Zrotation
	JOINT spine_1
	{
		OFFSET	0	9.99999	0
		CHANNELS 3  Xrotation Yrotation Zrotation
		JOINT spine_2
		{
			OFFSET	0	112	-10
			CHANNELS 3  Xrotation Yrotation Zrotation
			JOINT spine_3
			{
				OFFSET	0	206.5	19.3
				CHANNELS 3  Xrotation Yrotation Zrotation
				JOINT spine_4
				{
					OFFSET	0	110.4	14.6
					CHANNELS 3  Xrotation Yrotation Zrotation
					JOINT neck_1
					{
						OFFSET	0	71.8	-50.3
						CHANNELS 3  Xrotation Yrotation Zrotation
						JOINT neck_2
						{
							OFFSET	0	86.2	-25.8
							CHANNELS 3  Xrotation Yrotation Zrotation
							JOINT head_ee
							{
								OFFSET	0	179.8	-8.7
								CHANNELS 3  Xrotation Yrotation Zrotation
								End Site
								{
									OFFSET	1	0	0
								}
							}
						}
					}
					JOINT left_clavicle
					{
						OFFSET	-43.2	22.4	-70.8
						CHANNELS 3  Xrotation Yrotation Zrotation
						JOINT left_shoulder
						{
							OFFSET	-93.9	-5.79999	48.7
							CHANNELS 3  Xrotation Yrotation Zrotation
							JOINT left_elbow
							{
								OFFSET	-291.4	-30.8	15.2
								CHANNELS 3  Xrotation Yrotation Zrotation
								JOINT left_lowarm_twist
								{
									OFFSET	-110.7	-3.89999	13.6
									CHANNELS 3  Xrotation Yrotation Zrotation
									JOINT left_hand
									{
										OFFSET	-110.7	-3.89999	13.6
										CHANNELS 3  Xrotation Yrotation Zrotation
										JOINT left_ee
										{
											OFFSET	-80.8	-5.10001	12.1
											CHANNELS 3  Xrotation Yrotation Zrotation
											End Site
											{
												OFFSET	1	0	0
											}
										}
									}
								}
							}
						}
					}
					JOINT right_clavicle
					{
						OFFSET	43.2	22.4	-70.8
						CHANNELS 3  Xrotation Yrotation Zrotation
						JOINT right_shoulder
						{
							OFFSET	93.9	-5.79999	48.7
							CHANNELS 3  Xrotation Yrotation Zrotation
							JOINT right_elbow
							{
								OFFSET	291.4	-30.8	15.2
								CHANNELS 3  Xrotation Yrotation Zrotation
								JOINT right_lowarm_twist
								{
									OFFSET	110.7	-3.89999	13.6
									CHANNELS 3  Xrotation Yrotation Zrotation
									JOINT right_hand
									{
										OFFSET	110.7	-3.89999	13.6
										CHANNELS 3  Xrotation Yrotation Zrotation
										JOINT right_ee
										{
											OFFSET	80.8	-5.10001	12.1
											CHANNELS 3  Xrotation Yrotation Zrotation
											End Site
											{
												OFFSET	1	0	0
											}
										}
									}
								}
							}
						}
					}
				}
			}
		}
	}
	JOINT left_hip
	{
		OFFSET	-82.8	-127.5	0.300001
		CHANNELS 3  Xrotation Yrotation Zrotation
		JOINT left_knee
		{
			OFFSET	-28.2	-396.7	2.2
			CHANNELS 3  Xrotation Yrotation Zrotation
			JOINT left_ankle
			{
				OFFSET	-11.7	-411.3	35.4
				CHANNELS 3  Xrotation Yrotation Zrotation
				JOINT left_toes
				{
					OFFSET	0	-60	-88.6
					CHANNELS 3  Xrotation Yrotation Zrotation
					JOINT left_foot_ee
					{
						OFFSET	-22.5	-16.5	-42.2
						CHANNELS 3  Xrotation Yrotation Zrotation
						End Site
						{
							OFFSET	1	0	0
						}
					}
				}
			}
		}
	}
	JOINT right_hip
	{
		OFFSET	82.8	-127.5	0.300001
		CHANNELS 3  Xrotation Yrotation Zrotation
		JOINT right_knee
		{
			OFFSET	28.2	-396.7	2.2
			CHANNELS 3  Xrotation Yrotation Zrotation
			JOINT right_ankle
			{
				OFFSET	11.7	-411.3	35.4
				CHANNELS 3  Xrotation Yrotation Zrotation
				JOINT right_toes
				{
					OFFSET	0	-60	-88.6
					CHANNELS 3  Xrotation Yrotation Zrotation
					JOINT right_foot_ee
					{
						OFFSET	22.5	-16.5	-42.2
						CHANNELS 3  Xrotation Yrotation Zrotation
						End Site
						{
							OFFSET	1	0	0
						}
					}
				}
			}
		}
	}
}
MOTION
Frames: 10
Frame Time: 0.02
1050.24078842 740.783 -1541.09791621 7.64349146651 74.6426091723 -8.00602946275 3.22232 -0.0572819 0.17574 3.22234 -0.0683486 0.171739 3.22213 -0.0941251 0.159079 3.2221 -0.0678203 0.171948 -26.2397 5.62147 2.7931 -26.4213 9.71191 5.57452 -0.0 0.0 -0.0 -2.06718 16.512 -1.29537 -23.8868 -33.7073 66.606 0.281664 -7.94328 0.0195558 -32.8386 -2.22372 3.50034 3.45124 12.9537 28.3204 -0.0 0.0 -0.0 4.65334 0.201032 -8.97744 -14.1406 43.6869 -61.3934 1.44826 35.6545 -0.465769 -4.14768 0.164477 -0.5039 2.72505 -30.0495 -27.3088 0.0 0.0 0.0 4.12861 4.36315 -2.27349 -34.5484 -0.156844 5.22027 38.8873 -0.25271 -4.78088 -12.765 0.0 0.0 -0.0 0.0 -0.0 5.34546 2.65763 -5.67086 -12.8203 -0.312081 -1.93862 12.0563 -2.27953 1.70891 3.15535 -0.0 -0.0 0.0 0.0 0.0 
1041.29014666 740.404 -1547.71102233 8.04090288856 75.3301009537 -8.1767364198 3.20489 -0.00247661 0.269648 3.20493 -0.0196299 0.268944 3.20482 -0.0611302 0.262639 3.20473 -0.0188842 0.268997 -25.7492 5.67017 2.80512 -25.9278 9.78293 5.56 -0.0 0.0 -0.0 -1.39783 15.1633 -0.450446 -26.0092 -32.5858 65.43 0.269682 -7.6094 0.0179345 -33.1792 -2.25669 3.52901 3.48228 14.0417 28.864 -0.0 0.0 -0.0 4.81182 0.222629 -9.28572 -12.5412 43.4917 -60.9788 1.39743 34.6907 -0.436483 -2.35746 0.0890058 -0.287853 2.75851 -27.6822 -27.1031 0.0 0.0 0.0 8.47032 4.42546 -4.31262 -33.4555 -0.103724 5.06102 39.8162 -3.06565 -4.88968 -12.203 0.0 0.0 -0.0 0.0 -0.0 4.14537 0.784241 -5.49835 -13.0432 -0.313646 -1.97278 10.9999 -2.30466 1.56529 2.76662 -0.0 -0.0 0.0 0.0 0.0 
1031.78185125 737.575 -1549.87155285 5.46605063109 76.1271110248 -5.73235806168 3.21565 0.0196257 0.340588 3.21571 -0.00208647 0.341147 3.21568 -0.0549409 0.3367 3.21552 -0.00107619 0.341151 -25.7969 4.68558 1.49367 -25.9402 8.42026 3.82973 -0.0 0.0 -0.0 -1.50476 15.2788 -0.603863 -27.2023 -33.5821 64.5188 0.303795 -8.55848 0.0227318 -33.38 -2.27621 3.54582 3.2917 13.2225 27.2467 -0.0 0.0 -0.0 5.34388 1.93673 -10.2735 -11.7764 42.2324 -59.3557 1.44386 35.572 -0.463206 -2.47776 0.0938654 -0.302444 2.88972 -28.7083 -28.1146 0.0 0.0 0.0 11.6913 7.71376 -4.91707 -32.0062 -0.0379914 4.84836 39.0469 -5.97468 -4.86392 -11.6128 0.0 0.0 -0.0 0.0 -0.0 4.24516 -3.11055 -4.78842 -13.2735 -0.315124 -2.00809 13.1491 -2.86801 1.85426 2.03926 -0.0 -0.0 0.0 0.0 0.0 
1000.50351519 733.898 -1543.44222531 4.51031790707 78.3289348643 -5.09452411328 3.08929 0.718691 0.318841 3.08908 0.696946 0.363928 3.09361 0.631136 0.468878 3.09398 0.697265 0.363315 -24.0378 3.66621 -1.43324 -24.1466 7.69947 0.466161 -0.0 0.0 -0.0 -1.7159 13.723 -1.18897 -29.8174 -33.1267 63.8437 0.434561 -12.1488 0.046245 -33.2783 -2.26631 3.53731 3.24604 11.8522 26.5012 -0.0 0.0 -0.0 7.0163 5.20753 -13.5706 -10.5739 33.9388 -56.5376 1.48754 36.3836 -0.488868 -3.98729 0.15744 -0.484641 1.46557 -27.7637 -19.2655 0.0 0.0 0.0 16.8922 4.51247 -4.00158 -31.2443 -0.00560246 4.73594 33.7401 -7.99072 -4.39895 -10.9689 0.0 0.0 -0.0 0.0 -0.0 2.76551 -5.36818 -3.82942 -14.1168 -0.319321 -2.13739 15.5298 -0.45304 2.17828 3.41058 -0.0 -0.0 0.0 0.0 0.0 
975.840522284 729.12 -1547.35709468 5.43016686923 76.8715083144 -6.4411078621 2.7438 1.17794 0.427509 2.74317 1.14834 0.501605 2.75348 1.05132 0.68194 2.75466 1.14583 0.507334 -22.5993 3.79511 -1.15755 -22.7041 7.8591 0.689903 -0.0 0.0 -0.0 -2.04074 12.8503 -1.86758 -30.5238 -32.9796 64.46 0.536717 -14.8892 0.0701326 -32.0287 -2.14602 3.4314 3.26043 10.0434 26.0289 -0.0 0.0 -0.0 8.09544 7.48373 -15.778 -9.50088 29.8892 -55.4166 1.57572 37.9716 -0.542155 -4.84039 0.195489 -0.586858 0.435712 -25.4793 -12.5997 0.0 0.0 0.0 22.5926 1.40022 -3.48211 -29.4945 0.0630943 4.47621 28.1327 -5.32029 -3.76236 -11.1939 0.0 0.0 -0.0 0.0 -0.0 -0.77323 -5.92774 -2.78092 -12.1153 -0.306257 -1.83061 19.9745 4.05027 2.78004 4.13826 -0.0 -0.0 0.0 0.0 0.0 
974.648865176 729.12 -1540.47372558 5.86659042756 77.8605732299 -6.88834385054 2.7438 1.17794 0.427509 2.74317 1.14834 0.501605 2.75348 1.05132 0.68194 2.75466 1.14583 0.507334 -22.5993 3.79511 -1.15755 -22.7041 7.8591 0.689903 -0.0 0.0 -0.0 -2.04074 12.8503 -1.86758 -30.5238 -32.9796 64.46 0.536717 -14.8892 0.0701326 -32.0287 -2.14602 3.4314 3.26043 10.0434 26.0289 -0.0 0.0 -0.0 8.09544 7.48373 -15.778 -9.50088 29.8892 -55.4166 1.57572 37.9716 -0.542155 -4.84039 0.195489 -0.586858 0.435712 -25.4793 -12.5997 0.0 0.0 0.0 22.5926 1.40022 -3.48211 -29.4945 0.0630943 4.47621 28.1327 -5.32029 -3.76236 -11.1939 0.0 0.0 -0.0 0.0 -0.0 -0.77323 -5.92774 -2.78092 -12.1153 -0.306257 -1.83061 19.9745 4.05027 2.78004 4.13826 -0.0 -0.0 0.0 0.0 0.0 
967.807750522 726.646 -1539.92661142 3.60024332444 77.9786947294 -4.6232148526 2.77975 1.22689 0.435729 2.77906 1.19667 0.512925 2.79006 1.09762 0.700273 2.79137 1.19443 0.518123 -23.0753 3.14919 -2.51793 -23.153 7.22096 -0.847231 -0.0 0.0 -0.0 -2.0027 12.5286 -1.85759 -30.8326 -32.972 64.8509 0.562023 -15.5579 0.0767778 -32.798 -2.2198 3.49691 3.21023 10.6618 25.8673 -0.0 0.0 -0.0 8.37712 8.64583 -16.3529 -9.08311 28.554 -54.439 1.59135 38.2462 -0.551804 -5.06074 0.205564 -0.613168 0.416273 -26.0958 -12.6939 0.0 0.0 0.0 24.7098 2.09717 -4.08929 -28.5838 0.0956978 4.34024 30.2687 -9.14983 -4.05894 -10.9062 0.0 0.0 -0.0 0.0 -0.0 -1.2366 -6.06247 -2.95688 -11.6415 -0.301596 -1.75805 18.0638 2.91938 2.52775 4.44628 -0.0 -0.0 0.0 0.0 0.0 
942.363034412 719.591 -1542.33333394 -3.47237079141 77.8562533585 2.6637820629 2.75019 0.711027 0.643254 2.75017 0.668655 0.687194 2.75828 0.547846 0.78689 2.75803 0.665243 0.690498 -21.208 4.97555 -1.42329 -21.3717 10.2908 0.877478 -0.0 0.0 -0.0 -2.1539 11.6033 -2.26689 -31.2521 -32.6523 66.2629 0.569075 -15.7435 0.0786801 -31.6976 -2.11454 3.4029 3.39083 10.5311 27.1322 -0.0 0.0 -0.0 8.94937 10.2856 -17.5444 -8.35543 25.9363 -52.8972 1.93912 43.8436 -0.780442 -4.54238 0.182024 -0.551214 0.175606 -19.114 -8.79947 0.0 0.0 0.0 27.5043 -0.560705 -2.50989 -19.8237 0.297694 3.01239 29.2632 -9.29086 -3.95181 -11.0011 0.0 0.0 -0.0 0.0 -0.0 -2.46098 -6.1572 -3.22052 -8.28964 -0.251513 -1.24624 20.9147 5.20345 2.90937 4.53264 -0.0 -0.0 0.0 0.0 0.0 
928.538819844 717.545 -1543.56921142 -11.5246607571 79.074718793 10.3465858766 2.89805 0.457603 0.965854 2.89848 0.395219 0.993012 2.90526 0.230919 1.04352 2.90396 0.392818 0.993964 -18.2139 5.04117 -0.496671 -18.3361 9.96665 1.49555 -0.0 0.0 -0.0 -2.12577 11.3175 -2.26721 -31.1394 -32.475 66.3142 0.570554 -15.7823 0.0790818 -30.5937 -2.01079 3.30658 3.62041 11.8414 29.2267 -0.0 0.0 -0.0 9.07587 11.172 -17.7957 -9.29109 25.4384 -52.9216 1.96115 44.1669 -0.795745 -3.99133 0.157616 -0.485126 -0.237766 -15.462 -4.84685 0.0 0.0 0.0 25.9714 -3.70212 -0.992083 -7.84796 0.242683 1.17904 25.5955 -9.89223 -3.54446 -12.527 0.0 0.0 -0.0 0.0 -0.0 -2.57474 -6.25849 -3.48714 -5.81544 -0.19538 -0.870732 21.7073 2.50684 2.9806 3.86148 -0.0 -0.0 0.0 0.0 0.0 
927.728066927 717.545 -1538.08335511 -12.3074630771 79.7675217033 11.1429084895 2.89805 0.457603 0.965854 2.89848 0.395219 0.993012 2.90526 0.230919 1.04352 2.90396 0.392818 0.993964 -18.2139 5.04117 -0.496671 -18.3361 9.96665 1.49555 -0.0 0.0 -0.0 -2.12577 11.3175 -2.26721 -31.1394 -32.475 66.3142 0.570554 -15.7823 0.0790818 -30.5937 -2.01079 3.30658 3.62041 11.8414 29.2267 -0.0 0.0 -0.0 9.07587 11.172 -17.7957 -9.29109 25.4384 -52.9216 1.96115 44.1669 -0.795745 -3.99133 0.157616 -0.485126 -0.237766 -15.462 -4.84685 0.0 0.0 0.0 25.9714 -3.70212 -0.992083 -7.84796 0.242683 1.17904 25.5955 -9.89223 -3.54446 -12.527 0.0 0.0 -0.0 0.0 -0.0 -2.57474 -6.25849 -3.48714 -5.81544 -0.19538 -0.870732 21.7073 2.50684 2.9806 3.86148 -0.0 -0.0 0.0 0.0 0.0 
